<svg width="210" height="42" viewBox="0 0 210 42" fill="none" xmlns="http://www.w3.org/2000/svg">
<path opacity="0.5" d="M40.0652 2.25671L30.2601 36.9917C30.2102 37.1494 30.0108 37.1967 29.8945 37.0863L23.3301 30.8583L28.2492 13.4514C28.2991 13.2937 28.1495 13.1518 27.9833 13.1991L9.63617 17.8662L3.10498 11.6697C2.98865 11.5593 3.03851 11.3701 3.20469 11.3228L39.7993 2.00444C39.9655 1.97291 40.115 2.11481 40.0652 2.25671Z" fill="#81FAD6"/>
<path opacity="0.5" d="M23.3297 30.858L20.8037 39.8452C20.7538 40.0029 20.5544 40.0502 20.4381 39.9398L0.0634003 20.6251C-0.0529313 20.5147 -0.00307518 20.3255 0.163113 20.2782L9.63583 17.8658L23.3297 30.858Z" fill="#81FAD6"/>
<path d="M28.2484 13.4511L23.3292 30.858L9.63533 17.8659L27.9825 13.1988C28.1487 13.1515 28.2982 13.2934 28.2484 13.4511Z" fill="#81FAD6"/>
<path d="M69.8204 18.7187V21.642H60.3258V18.7187H69.8204ZM61.4377 11.3104V29.5H57.6898V11.3104H61.4377ZM72.4938 11.3104V29.5H68.7585V11.3104H72.4938ZM74.9549 22.8788V22.6164C74.9549 21.6253 75.0965 20.7134 75.3797 19.8805C75.6628 19.0393 76.0751 18.3106 76.6165 17.6943C77.1578 17.078 77.8241 16.5991 78.6153 16.2576C79.4065 15.9078 80.3143 15.7329 81.3388 15.7329C82.3632 15.7329 83.2751 15.9078 84.0747 16.2576C84.8742 16.5991 85.5447 17.078 86.086 17.6943C86.6357 18.3106 87.0521 19.0393 87.3353 19.8805C87.6185 20.7134 87.7601 21.6253 87.7601 22.6164V22.8788C87.7601 23.8616 87.6185 24.7735 87.3353 25.6147C87.0521 26.4476 86.6357 27.1763 86.086 27.801C85.5447 28.4173 84.8784 28.8962 84.0872 29.2377C83.296 29.5791 82.3882 29.7499 81.3637 29.7499C80.3393 29.7499 79.4274 29.5791 78.6278 29.2377C77.8366 28.8962 77.1661 28.4173 76.6165 27.801C76.0751 27.1763 75.6628 26.4476 75.3797 25.6147C75.0965 24.7735 74.9549 23.8616 74.9549 22.8788ZM78.5529 22.6164V22.8788C78.5529 23.4451 78.6028 23.974 78.7028 24.4654C78.8027 24.9568 78.961 25.3899 79.1775 25.7646C79.4024 26.1311 79.6939 26.4184 80.052 26.6266C80.4101 26.8349 80.8474 26.939 81.3637 26.939C81.8635 26.939 82.2924 26.8349 82.6505 26.6266C83.0086 26.4184 83.296 26.1311 83.5125 25.7646C83.729 25.3899 83.8873 24.9568 83.9872 24.4654C84.0955 23.974 84.1496 23.4451 84.1496 22.8788V22.6164C84.1496 22.0668 84.0955 21.5504 83.9872 21.0673C83.8873 20.576 83.7249 20.1429 83.5 19.7681C83.2835 19.385 82.9961 19.0851 82.638 18.8686C82.2799 18.6521 81.8468 18.5438 81.3388 18.5438C80.8307 18.5438 80.3976 18.6521 80.0395 18.8686C79.6897 19.0851 79.4024 19.385 79.1775 19.7681C78.961 20.1429 78.8027 20.576 78.7028 21.0673C78.6028 21.5504 78.5529 22.0668 78.5529 22.6164ZM93.5692 18.7811V29.5H89.9588V15.9828H93.3444L93.5692 18.7811ZM93.0695 22.2666H92.0701C92.0701 21.3255 92.1825 20.4594 92.4074 19.6681C92.6406 18.8686 92.9779 18.1773 93.4193 17.5943C93.8691 17.003 94.4229 16.5449 95.0809 16.2201C95.7388 15.8953 96.5009 15.7329 97.3671 15.7329C97.9667 15.7329 98.5164 15.8245 99.0161 16.0077C99.5158 16.1826 99.9447 16.4616 100.303 16.8448C100.669 17.2195 100.953 17.7109 101.152 18.3189C101.352 18.9186 101.452 19.639 101.452 20.4802V29.5H97.8543V20.8799C97.8543 20.2636 97.771 19.7889 97.6044 19.4558C97.4379 19.1226 97.2005 18.8894 96.8923 18.7562C96.5925 18.6229 96.2302 18.5563 95.8055 18.5563C95.3391 18.5563 94.931 18.6521 94.5812 18.8436C94.2397 19.0352 93.9565 19.3017 93.7316 19.6432C93.5068 19.9763 93.3402 20.3677 93.2319 20.8175C93.1237 21.2672 93.0695 21.7503 93.0695 22.2666ZM101.115 21.8544L99.8281 22.0168C99.8281 21.134 99.9364 20.3136 100.153 19.5557C100.378 18.7978 100.707 18.1315 101.14 17.5569C101.581 16.9822 102.127 16.5366 102.776 16.2201C103.426 15.8953 104.176 15.7329 105.025 15.7329C105.675 15.7329 106.266 15.8287 106.799 16.0202C107.332 16.2035 107.786 16.4991 108.161 16.9072C108.544 17.307 108.835 17.8317 109.035 18.4813C109.244 19.1309 109.348 19.9263 109.348 20.8675V29.5H105.737V20.8675C105.737 20.2428 105.654 19.7681 105.487 19.4433C105.329 19.1101 105.096 18.8811 104.788 18.7562C104.488 18.6229 104.13 18.5563 103.713 18.5563C103.28 18.5563 102.901 18.6437 102.577 18.8186C102.252 18.9852 101.981 19.2184 101.765 19.5182C101.548 19.8181 101.386 20.1679 101.277 20.5676C101.169 20.9591 101.115 21.388 101.115 21.8544ZM118.355 29.7499C117.306 29.7499 116.364 29.5833 115.532 29.2501C114.699 28.9087 113.991 28.4381 113.408 27.8385C112.833 27.2388 112.392 26.5434 112.084 25.7521C111.775 24.9526 111.621 24.1031 111.621 23.2036V22.7039C111.621 21.6795 111.767 20.7425 112.059 19.893C112.35 19.0435 112.767 18.3064 113.308 17.6818C113.858 17.0571 114.524 16.5782 115.307 16.2451C116.09 15.9036 116.972 15.7329 117.955 15.7329C118.913 15.7329 119.763 15.8911 120.504 16.2076C121.245 16.5241 121.866 16.9739 122.365 17.5569C122.873 18.1398 123.256 18.8394 123.515 19.6556C123.773 20.4635 123.902 21.363 123.902 22.3541V23.8532H113.158V21.4546H120.366V21.1798C120.366 20.6801 120.275 20.2345 120.092 19.843C119.917 19.4433 119.65 19.1268 119.292 18.8936C118.934 18.6604 118.476 18.5438 117.918 18.5438C117.443 18.5438 117.035 18.6479 116.693 18.8561C116.352 19.0643 116.073 19.3558 115.856 19.7306C115.648 20.1054 115.49 20.5468 115.382 21.0548C115.282 21.5546 115.232 22.1042 115.232 22.7039V23.2036C115.232 23.745 115.307 24.2447 115.457 24.7028C115.615 25.1608 115.836 25.5564 116.119 25.8896C116.41 26.2227 116.76 26.4809 117.168 26.6641C117.585 26.8474 118.055 26.939 118.58 26.939C119.23 26.939 119.833 26.814 120.391 26.5642C120.958 26.306 121.445 25.9187 121.853 25.4024L123.602 27.3013C123.319 27.7094 122.932 28.1008 122.44 28.4756C121.957 28.8504 121.374 29.1585 120.691 29.4001C120.008 29.6333 119.23 29.7499 118.355 29.7499ZM134.258 11.3104H137.432L142.104 24.6653L146.776 11.3104H149.949L143.378 29.5H140.83L134.258 11.3104ZM132.547 11.3104H135.708L136.282 24.328V29.5H132.547V11.3104ZM148.5 11.3104H151.673V29.5H147.926V24.328L148.5 11.3104ZM154.159 22.8788V22.6164C154.159 21.6253 154.301 20.7134 154.584 19.8805C154.867 19.0393 155.28 18.3106 155.821 17.6943C156.362 17.078 157.029 16.5991 157.82 16.2576C158.611 15.9078 159.519 15.7329 160.543 15.7329C161.568 15.7329 162.48 15.9078 163.279 16.2576C164.079 16.5991 164.749 17.078 165.291 17.6943C165.84 18.3106 166.257 19.0393 166.54 19.8805C166.823 20.7134 166.965 21.6253 166.965 22.6164V22.8788C166.965 23.8616 166.823 24.7735 166.54 25.6147C166.257 26.4476 165.84 27.1763 165.291 27.801C164.749 28.4173 164.083 28.8962 163.292 29.2377C162.501 29.5791 161.593 29.7499 160.568 29.7499C159.544 29.7499 158.632 29.5791 157.832 29.2377C157.041 28.8962 156.371 28.4173 155.821 27.801C155.28 27.1763 154.867 26.4476 154.584 25.6147C154.301 24.7735 154.159 23.8616 154.159 22.8788ZM157.757 22.6164V22.8788C157.757 23.4451 157.807 23.974 157.907 24.4654C158.007 24.9568 158.166 25.3899 158.382 25.7646C158.607 26.1311 158.898 26.4184 159.257 26.6266C159.615 26.8349 160.052 26.939 160.568 26.939C161.068 26.939 161.497 26.8349 161.855 26.6266C162.213 26.4184 162.501 26.1311 162.717 25.7646C162.934 25.3899 163.092 24.9568 163.192 24.4654C163.3 23.974 163.354 23.4451 163.354 22.8788V22.6164C163.354 22.0668 163.3 21.5504 163.192 21.0673C163.092 20.576 162.929 20.1429 162.705 19.7681C162.488 19.385 162.201 19.0851 161.843 18.8686C161.484 18.6521 161.051 18.5438 160.543 18.5438C160.035 18.5438 159.602 18.6521 159.244 18.8686C158.894 19.0851 158.607 19.385 158.382 19.7681C158.166 20.1429 158.007 20.576 157.907 21.0673C157.807 21.5504 157.757 22.0668 157.757 22.6164ZM172.699 18.8686V29.5H169.101V15.9828H172.474L172.699 18.8686ZM172.174 22.2666H171.2C171.2 21.2672 171.329 20.3677 171.587 19.5682C171.845 18.7603 172.207 18.0732 172.674 17.5069C173.14 16.9322 173.694 16.495 174.335 16.1951C174.985 15.887 175.71 15.7329 176.509 15.7329C177.142 15.7329 177.721 15.8245 178.246 16.0077C178.77 16.191 179.22 16.4825 179.595 16.8822C179.978 17.282 180.27 17.8109 180.469 18.4688C180.678 19.1268 180.782 19.9305 180.782 20.8799V29.5H177.159V20.8675C177.159 20.2678 177.076 19.8014 176.909 19.4683C176.742 19.1351 176.497 18.9019 176.172 18.7687C175.855 18.6271 175.464 18.5563 174.998 18.5563C174.514 18.5563 174.094 18.6521 173.736 18.8436C173.386 19.0352 173.094 19.3017 172.861 19.6432C172.636 19.9763 172.466 20.3677 172.349 20.8175C172.232 21.2672 172.174 21.7503 172.174 22.2666ZM189.739 29.7499C188.69 29.7499 187.749 29.5833 186.916 29.2501C186.083 28.9087 185.375 28.4381 184.792 27.8385C184.217 27.2388 183.776 26.5434 183.468 25.7521C183.16 24.9526 183.005 24.1031 183.005 23.2036V22.7039C183.005 21.6795 183.151 20.7425 183.443 19.893C183.734 19.0435 184.151 18.3064 184.692 17.6818C185.242 17.0571 185.908 16.5782 186.691 16.2451C187.474 15.9036 188.357 15.7329 189.339 15.7329C190.297 15.7329 191.147 15.8911 191.888 16.2076C192.629 16.5241 193.25 16.9739 193.749 17.5569C194.257 18.1398 194.64 18.8394 194.899 19.6556C195.157 20.4635 195.286 21.363 195.286 22.3541V23.8532H184.542V21.4546H191.75V21.1798C191.75 20.6801 191.659 20.2345 191.476 19.843C191.301 19.4433 191.034 19.1268 190.676 18.8936C190.318 18.6604 189.86 18.5438 189.302 18.5438C188.827 18.5438 188.419 18.6479 188.078 18.8561C187.736 19.0643 187.457 19.3558 187.241 19.7306C187.032 20.1054 186.874 20.5468 186.766 21.0548C186.666 21.5546 186.616 22.1042 186.616 22.7039V23.2036C186.616 23.745 186.691 24.2447 186.841 24.7028C186.999 25.1608 187.22 25.5564 187.503 25.8896C187.794 26.2227 188.144 26.4809 188.552 26.6641C188.969 26.8474 189.439 26.939 189.964 26.939C190.614 26.939 191.217 26.814 191.775 26.5642C192.342 26.306 192.829 25.9187 193.237 25.4024L194.986 27.3013C194.703 27.7094 194.316 28.1008 193.824 28.4756C193.341 28.8504 192.758 29.1585 192.075 29.4001C191.392 29.6333 190.614 29.7499 189.739 29.7499ZM201.17 27.9759L204.755 15.9828H208.616L203.181 31.5363C203.065 31.8778 202.907 32.2443 202.707 32.6357C202.515 33.0271 202.253 33.3978 201.92 33.7476C201.595 34.1057 201.183 34.3972 200.683 34.6221C200.191 34.8469 199.588 34.9594 198.871 34.9594C198.53 34.9594 198.251 34.9385 198.034 34.8969C197.818 34.8553 197.56 34.797 197.26 34.722V32.086C197.351 32.086 197.447 32.086 197.547 32.086C197.647 32.0943 197.743 32.0985 197.834 32.0985C198.309 32.0985 198.696 32.0444 198.996 31.9361C199.296 31.8278 199.538 31.6613 199.721 31.4364C199.904 31.2198 200.05 30.9367 200.158 30.5869L201.17 27.9759ZM199.671 15.9828L202.607 25.7771L203.119 29.5874L200.67 29.8498L195.811 15.9828H199.671Z" fill="#E1E1E6"/>
</svg>
